<svg xmlns="http://www.w3.org/2000/svg" pointer-events="none" class="leaflet-zoom-animated" width="1362" height="821" viewBox="0 0 1362 821">
  <g transform="scale(1)" fill="none" stroke-opacity="0.3">
    <path class="leaflet-interactive" stroke="#6A9FC3" stroke-width="2px" stroke-linecap="round" stroke-linejoin="round" fill-rule="evenodd" d="M812 271L817 264L815 262L815 257L821 251L822 248L815 243L816 239L814 239L811 231L809 231L808 229L810 224L822 224L823 223L818 215L819 212L825 208L832 206L835 202L841 203L845 201L855 208L858 205L863 205L865 203L861 193L865 186L870 185L872 178L870 177L874 177L880 184L883 183L885 179L884 177L887 176L887 174L882 169L868 169L867 167L860 165L854 166L847 170L843 170L840 174L837 175L826 173L822 167L817 169L807 162L791 162L785 161L783 158L774 161L766 161L763 164L759 162L756 163L747 159L746 156L740 151L739 147L736 146L735 136L728 135L728 128L725 127L724 122L716 114L713 114L711 112L710 113L708 111L705 113L697 100L693 99L693 96L684 93L682 89L683 84L680 81L678 81L672 69L673 59L677 52L676 48L674 44L673 45L668 43L661 38L656 41L655 45L657 49L655 65L649 67L642 61L641 63L637 62L630 67L622 65L620 66L617 64L614 66L614 71L612 75L614 76L619 86L619 94L613 92L604 93L598 88L592 78L590 81L587 81L584 84L583 91L597 106L602 116L610 120L610 124L616 131L617 136L614 139L612 137L606 138L604 137L604 134L598 134L592 137L579 136L576 139L576 143L572 139L569 140L567 135L561 130L558 133L556 140L557 141L554 144L554 146L550 147L550 150L543 158L539 174L532 172L529 177L526 178L526 181L529 185L520 186L517 188L516 191L513 191L512 193L509 194L505 195L504 192L498 200L496 200L496 202L493 202L490 194L488 195L489 193L473 189L468 196L453 199L451 209L444 208L435 216L434 215L434 218L429 227L431 230L437 229L441 231L438 238L438 241L440 241L438 248L445 252L445 254L455 267L455 269L458 271L460 270L462 272L462 275L465 275L470 278L476 278L478 283L477 288L483 293L483 300L487 307L489 308L487 311L481 311L476 314L476 316L473 319L471 318L467 325L468 328L464 335L460 334L458 336L460 337L457 341L459 346L458 348L454 347L455 349L451 346L447 346L442 340L442 337L439 338L437 342L434 343L433 351L429 354L422 352L420 353L423 354L419 355L418 353L408 353L403 358L394 357L393 361L392 360L392 365L390 366L388 364L382 367L382 371L375 372L369 380L365 382L366 383L358 387L356 390L354 394L356 400L354 399L350 403L349 414L353 413L359 418L363 419L365 423L374 430L371 436L375 439L372 452L386 460L386 463L384 463L383 466L372 468L371 470L364 465L358 471L354 469L351 470L351 473L349 473L350 475L352 475L353 480L360 484L366 485L366 498L368 499L368 501L363 515L370 514L371 517L374 518L372 534L380 525L387 533L391 535L395 531L399 530L401 532L403 532L403 530L405 530L405 532L409 531L411 530L412 526L413 529L417 532L420 541L418 542L424 545L425 550L430 550L433 560L437 560L438 562L437 560L453 563L453 561L451 560L451 555L453 551L456 551L460 547L462 549L467 549L468 546L470 546L469 542L473 543L475 541L474 531L477 532L482 540L484 540L484 543L486 543L486 545L489 541L491 541L492 533L495 534L496 539L499 539L501 535L504 536L503 540L507 541L523 540L523 538L524 541L527 540L531 542L536 540L536 537L548 535L551 539L554 539L556 543L559 543L561 552L560 560L564 565L568 566L569 568L576 568L576 570L583 579L587 581L602 581L609 584L614 580L613 573L609 571L607 573L607 569L603 571L605 563L602 562L601 556L606 556L606 562L611 562L610 557L617 556L617 554L620 553L618 547L628 548L629 543L633 541L633 539L631 539L631 535L634 532L637 534L637 530L637 533L639 533L643 530L643 526L650 524L652 525L652 523L654 523L657 531L659 532L670 530L674 532L676 531L676 533L679 535L684 534L684 532L678 528L678 524L680 525L684 523L687 526L690 525L693 527L696 530L697 534L701 533L701 528L706 527L708 525L710 527L712 526L710 520L716 514L716 509L725 506L731 506L730 501L726 502L726 493L724 492L726 489L732 487L733 488L731 479L729 480L729 477L732 477L734 475L734 471L741 472L741 469L743 469L742 467L739 467L738 464L740 464L736 461L733 449L731 448L731 453L728 454L725 450L721 450L718 448L717 445L715 445L709 438L706 437L706 434L704 438L699 434L699 415L692 410L697 400L697 396L695 394L698 386L708 388L708 384L711 381L718 380L721 383L730 380L732 380L733 382L736 379L739 380L739 382L740 381L740 384L745 380L747 385L751 384L755 387L761 387L762 384L768 380L768 377L773 376L772 375L775 374L775 376L777 372L785 373L790 376L795 374L795 371L802 373L802 369L806 374L805 375L807 374L807 371L810 368L809 365L812 366L812 364L819 358L825 362L828 357L831 357L833 355L835 350L844 352L847 345L847 342L845 340L848 338L856 339L855 338L860 334L853 334L854 332L852 330L856 329L852 327L852 324L856 323L855 321L851 319L846 320L844 318L842 315L843 311L841 309L842 308L840 300L838 302L836 301L833 304L831 304L830 297L825 294L825 286L821 284L822 283L820 277L817 273L813 273z"/>
    <path class="leaflet-interactive" stroke="#6A9FC3" stroke-width="2px" stroke-linecap="round" stroke-linejoin="round" fill-rule="evenodd" d="M611 440L611 434L613 434L613 430L609 430L609 421L611 421L612 416L606 410L604 410L602 406L602 410L597 410L600 423L598 423L600 440L595 441L603 445L604 441L611 440z"/>
    <path class="leaflet-interactive" stroke="#6A9FC3" stroke-width="2px" stroke-linecap="round" stroke-linejoin="round" fill-rule="evenodd" d="M581 432L580 439L585 439L587 442L600 440L598 423L600 423L597 411L599 407L592 408L593 415L589 416L588 414L588 416L582 417L584 432z"/>
    <path class="leaflet-interactive" stroke="#6A9FC3" stroke-width="2px" stroke-linecap="round" stroke-linejoin="round" fill-rule="evenodd" d="M650 392L646 388L646 386L644 387L638 381L638 376L637 377L633 373L629 374L626 370L619 369L618 367L615 377L609 376L604 379L601 384L599 385L598 383L599 386L587 388L594 400L595 407L599 407L597 411L602 410L602 406L603 409L606 410L608 414L610 414L611 416L611 421L609 421L609 430L613 430L613 434L611 434L611 442L612 444L613 443L614 445L615 444L616 446L618 446L616 448L613 447L608 454L612 456L611 458L614 457L619 461L625 458L627 459L629 455L635 456L636 455L634 454L641 453L644 453L649 457L651 456L652 451L654 449L653 448L655 448L659 444L657 441L659 434L656 434L658 430L657 423L659 424L659 416L660 414L663 416L662 403L660 404L660 402L662 402L663 399L658 396L659 395L657 393L652 393zM653 380L654 379L651 362L651 366L647 368L645 361L647 375L648 372L648 380L652 384L651 380z"/>
    <path class="leaflet-interactive" stroke="#6A9FC3" stroke-width="2px" stroke-linecap="round" stroke-linejoin="round" fill-rule="evenodd" d="M564 432L557 434L558 435L556 435L554 439L551 438L552 440L548 437L537 435L520 442L515 442L515 447L512 447L511 449L517 452L517 454L520 456L519 466L521 471L523 469L528 468L528 470L531 470L531 472L527 473L528 477L539 475L541 470L549 472L549 465L553 459L552 456L559 456L562 460L562 467L564 465L565 467L571 465L576 475L580 465L585 464L585 462L592 465L592 470L595 469L596 472L598 471L598 476L600 476L599 469L605 469L606 467L608 467L608 463L604 460L603 461L603 459L605 459L604 456L613 447L616 448L618 446L616 446L615 444L614 445L613 443L612 444L611 440L604 441L603 445L599 445L597 442L587 442L587 440L581 439L581 432L578 432L573 435L573 432L566 432z"/>
    <path class="leaflet-interactive" stroke="#6A9FC3" stroke-width="2px" stroke-linecap="round" stroke-linejoin="round" fill-rule="evenodd" d="M540 435L543 437L548 437L551 440L551 438L554 439L554 437L558 435L557 434L564 432L562 432L562 424L550 425L551 422L553 422L553 416L546 409L545 403L543 401L541 405L540 402L538 403L536 400L528 402L526 404L529 408L526 417L539 432z"/>
    <path class="leaflet-interactive" stroke="#6A9FC3" stroke-width="2px" stroke-linecap="round" stroke-linejoin="round" fill-rule="evenodd" d="M581 432L584 432L582 417L588 416L588 414L589 416L593 415L592 408L595 408L594 400L587 388L599 386L596 383L592 382L592 379L596 377L595 375L591 374L586 376L586 379L582 376L583 378L581 379L579 377L575 377L572 369L569 371L567 366L565 366L565 360L563 362L559 361L561 352L550 349L549 343L544 344L544 348L540 350L541 356L531 357L531 359L526 359L522 357L517 359L510 367L511 371L514 373L517 386L527 386L538 390L542 395L536 400L538 403L540 402L541 404L543 403L543 401L545 403L545 407L553 416L553 421L550 425L562 424L562 432L573 432L573 435L578 432z"/>
    <path class="leaflet-interactive" stroke="#6A9FC3" stroke-width="2px" stroke-linecap="round" stroke-linejoin="round" fill-rule="evenodd" d="M536 400L542 395L538 390L527 386L517 386L514 373L510 369L502 372L494 369L489 372L487 363L483 363L484 361L477 352L467 351L462 347L454 347L455 349L451 346L447 346L442 340L442 337L439 338L436 343L434 343L433 351L429 354L422 352L420 353L423 354L419 355L418 353L408 353L403 358L394 357L393 361L392 360L392 365L390 366L388 364L382 367L382 371L375 372L369 380L365 382L366 383L358 387L356 390L354 394L356 400L354 399L350 403L349 414L353 413L359 418L363 419L365 423L374 430L371 436L375 439L372 452L386 460L391 460L396 451L398 450L398 445L402 440L404 441L408 437L414 436L415 433L418 431L438 423L447 424L448 426L453 427L457 432L461 431L464 427L469 425L481 425L483 427L483 430L477 436L478 439L485 442L489 440L489 442L491 442L495 439L493 448L495 451L499 448L501 448L502 451L506 449L511 449L512 447L515 447L515 442L524 441L531 437L539 435L539 432L526 417L529 408L526 404L528 402L534 401z"/>
    <path class="leaflet-interactive" stroke="#6A9FC3" stroke-width="2px" stroke-linecap="round" stroke-linejoin="round" fill-rule="evenodd" d="M511 449L506 449L503 451L501 448L499 448L495 451L493 448L496 439L489 442L489 440L485 442L478 439L477 436L483 430L482 425L469 425L464 427L461 431L457 432L453 427L448 426L447 424L438 423L418 431L415 433L414 436L408 437L404 441L402 440L398 445L398 450L396 451L391 460L386 460L386 463L384 463L383 466L372 468L371 470L364 465L358 471L354 469L351 470L351 473L349 473L350 475L352 475L353 480L360 484L366 485L366 498L368 499L368 501L363 515L370 514L371 517L374 518L372 534L380 525L387 533L391 535L395 531L399 530L401 532L403 532L403 530L405 530L405 532L409 531L411 530L412 526L413 529L417 532L420 541L418 542L424 545L425 550L430 550L433 560L437 560L438 562L437 560L453 563L453 561L451 560L451 555L453 551L456 551L460 547L462 549L467 549L468 546L470 546L469 542L473 543L475 541L474 531L477 532L482 540L484 540L484 543L486 543L486 545L489 541L491 541L492 533L495 534L496 539L499 539L501 535L504 536L503 540L507 541L523 540L523 538L524 541L527 540L533 542L536 540L536 537L545 535L548 535L551 539L554 539L555 532L553 529L553 514L555 510L554 505L557 501L557 497L561 489L560 484L562 482L563 477L562 460L560 456L552 456L553 459L549 465L549 472L541 470L539 475L528 477L527 473L530 472L531 470L525 468L521 471L519 466L520 456L519 454L517 454L517 452L513 451z"/>
    <path class="leaflet-interactive" stroke="#6A9FC3" stroke-width="2px" stroke-linecap="round" stroke-linejoin="round" fill-rule="evenodd" d="M684 523L687 526L690 525L693 527L696 530L697 534L701 533L701 528L706 527L708 525L710 527L712 526L710 520L716 514L716 509L725 506L731 506L730 501L726 502L726 493L724 492L726 489L732 487L733 488L731 479L729 480L729 477L732 477L734 475L734 471L741 472L741 469L743 469L742 467L739 467L738 464L740 464L736 461L733 449L731 448L731 453L728 454L725 450L721 450L718 448L717 445L715 445L709 438L706 437L706 434L704 438L699 434L699 415L692 410L697 400L697 396L695 394L696 393L691 392L687 388L682 390L680 388L677 392L674 392L674 394L672 392L669 393L667 390L657 390L657 388L654 387L650 392L657 393L659 395L658 396L663 399L663 401L660 402L660 404L662 403L663 416L660 414L659 416L659 424L657 423L658 430L656 433L659 434L657 441L659 444L655 448L653 448L654 449L652 451L651 456L647 456L648 455L644 453L634 454L636 455L636 457L634 458L637 463L634 467L636 471L634 472L635 475L638 475L635 475L636 478L633 477L632 475L631 476L632 481L634 482L633 484L636 485L634 485L634 488L636 489L635 491L633 491L635 494L645 493L645 495L651 494L656 489L659 489L663 495L665 495L665 497L663 498L665 502L669 502L669 507L678 507L678 515L680 518L683 518L683 522z"/>
    <path class="leaflet-interactive" stroke="#6A9FC3" stroke-width="2px" stroke-linecap="round" stroke-linejoin="round" fill-rule="evenodd" d="M696 393L698 386L708 388L708 384L711 381L718 380L721 383L730 380L732 380L733 382L736 379L739 380L739 382L740 381L740 384L745 380L745 376L749 376L751 371L750 367L746 363L748 363L746 354L749 347L747 345L745 338L742 339L740 336L741 332L739 333L736 326L739 327L739 322L738 320L732 323L731 320L727 319L729 318L727 317L724 308L722 307L723 305L721 299L718 299L716 293L713 293L709 299L710 301L706 302L700 300L699 305L696 307L693 307L688 303L687 304L688 302L679 313L676 314L677 316L675 316L673 319L669 317L669 309L663 311L661 309L658 310L657 313L653 313L651 308L644 307L643 304L635 304L636 307L632 311L628 311L627 309L626 313L621 315L622 322L619 323L619 328L623 333L620 344L622 343L624 345L621 348L624 360L621 365L617 366L619 369L626 370L629 374L633 373L637 377L639 377L646 372L645 361L647 368L651 367L651 362L654 387L657 388L657 390L660 389L661 391L665 389L669 393L672 392L674 395L674 392L677 392L680 388L682 389L682 391L686 390L687 388L694 392zM646 372L639 377L638 381L644 387L646 386L646 388L650 392L654 387L653 380L651 380L652 384L650 383L648 372L647 375z"/>
    <path class="leaflet-interactive" stroke="#6A9FC3" stroke-width="2px" stroke-linecap="round" stroke-linejoin="round" fill-rule="evenodd" d="M598 384L601 384L603 379L609 376L613 378L615 377L617 367L623 363L624 360L621 348L624 345L622 343L620 344L623 333L619 328L619 323L622 322L621 315L626 313L627 310L624 309L620 303L613 301L612 296L614 291L613 289L611 289L610 285L609 287L607 287L596 283L591 286L592 277L587 277L590 274L589 272L586 272L581 267L578 266L573 268L573 265L570 271L567 268L562 269L562 271L560 269L557 271L556 269L552 269L551 271L544 274L543 272L538 274L535 276L535 279L537 281L536 284L534 284L534 280L533 281L534 291L531 292L529 292L526 286L519 286L519 284L517 283L513 284L511 287L512 289L507 292L505 292L501 285L499 285L497 288L493 288L490 290L495 297L493 297L491 306L487 311L481 311L476 314L476 316L473 319L471 318L467 325L468 328L464 335L460 334L458 336L460 337L457 341L460 348L462 347L467 351L477 352L484 361L483 363L485 363L486 365L487 363L489 372L494 369L502 372L505 370L506 371L507 369L510 369L510 367L516 361L516 359L519 357L531 359L531 357L541 356L540 350L544 348L544 344L547 345L549 343L550 349L561 352L559 361L562 362L565 360L565 366L567 365L569 371L572 369L575 377L576 376L581 379L583 378L582 376L585 379L586 376L593 374L596 377L592 379L592 382L596 383z"/>
    <path class="leaflet-interactive" stroke="#6A9FC3" stroke-width="2px" stroke-linecap="round" stroke-linejoin="round" fill-rule="evenodd" d="M684 523L683 518L679 517L678 515L678 507L669 507L670 504L669 502L665 502L663 498L665 495L663 495L661 490L657 489L653 493L646 495L645 493L635 494L633 492L635 492L636 489L634 488L634 485L636 485L633 484L634 482L632 481L631 476L632 475L633 477L636 478L635 475L638 475L635 475L634 472L636 471L634 467L637 463L634 458L636 457L635 456L630 455L627 458L619 461L614 457L611 458L612 456L608 454L605 456L604 455L605 459L603 459L603 461L604 460L607 463L608 467L606 467L605 469L599 469L600 476L598 476L598 471L596 472L595 469L592 470L592 466L585 462L585 464L581 465L580 470L576 475L572 467L573 466L571 465L565 467L564 465L562 467L563 477L562 482L560 484L561 489L557 496L557 501L554 505L554 539L555 542L558 542L558 544L559 543L560 545L560 560L564 565L568 566L569 568L576 568L576 570L583 579L587 581L602 581L609 584L613 582L613 573L609 571L607 573L607 569L603 571L605 563L602 562L601 556L606 556L606 562L611 562L610 557L617 556L617 554L620 553L618 547L628 548L629 543L633 541L633 539L631 539L631 535L634 532L637 534L637 530L637 533L639 533L643 530L643 526L650 524L652 525L652 523L654 523L657 531L659 532L670 530L674 532L676 531L676 533L679 535L684 534L684 532L678 528L678 524L683 524z"/>
    <path class="leaflet-interactive" stroke="#6A9FC3" stroke-width="2px" stroke-linecap="round" stroke-linejoin="round" fill-rule="evenodd" d="M572 265L573 268L578 266L584 269L586 272L589 272L590 274L587 277L592 277L591 286L596 283L607 287L609 287L610 285L611 289L613 289L614 291L611 296L613 301L618 302L622 305L624 309L628 311L632 311L633 309L635 309L635 304L643 304L644 307L651 308L653 313L657 313L658 310L661 309L663 311L669 309L669 317L671 317L672 319L675 316L677 316L676 314L679 313L679 311L691 295L692 296L696 291L691 284L689 285L689 283L685 285L685 283L683 283L685 278L679 271L682 268L680 267L681 262L688 258L686 256L684 257L683 255L683 243L679 242L676 237L676 235L678 236L676 234L677 227L680 221L682 220L679 218L678 213L673 212L671 210L669 211L669 209L673 210L672 208L680 207L681 205L680 195L677 189L681 177L681 168L688 162L690 162L692 159L699 161L701 151L698 143L699 141L701 145L710 144L713 140L712 137L720 132L719 129L725 127L724 122L716 114L713 114L711 112L710 113L708 111L705 113L697 100L693 99L693 96L684 93L682 89L683 84L680 81L678 81L672 69L673 59L677 52L676 48L674 44L673 45L668 43L664 39L661 38L656 41L655 47L657 49L657 54L655 58L655 65L649 67L642 61L641 63L637 62L630 67L622 65L620 66L617 64L614 66L614 71L612 75L614 76L619 86L619 94L613 92L604 93L598 88L592 78L590 81L587 81L583 86L583 91L597 106L602 116L610 120L610 124L616 131L617 136L621 137L627 142L626 145L629 147L629 152L626 159L627 162L623 164L623 170L629 170L631 174L636 176L642 182L645 183L644 186L637 186L634 193L634 198L627 208L622 211L621 215L618 217L616 221L620 224L625 223L631 230L631 232L624 235L617 233L609 236L602 235L598 238L597 235L594 234L594 230L589 228L580 229L575 234L572 234L575 243L572 249L573 256L571 258L571 264z"/>
    <path class="leaflet-interactive" stroke="#6A9FC3" stroke-width="2px" stroke-linecap="round" stroke-linejoin="round" fill-rule="evenodd" d="M745 380L747 385L751 384L755 387L761 387L762 384L768 380L768 377L773 376L772 375L775 374L775 376L777 372L785 373L790 376L795 374L795 371L802 373L802 369L806 374L805 375L807 374L807 371L810 368L809 365L812 366L812 364L819 358L825 362L828 357L831 357L833 355L835 350L844 352L847 345L847 342L845 340L848 338L856 339L855 338L860 334L853 334L854 332L852 330L856 329L852 327L852 324L856 323L855 321L851 319L846 320L842 315L843 311L841 309L841 301L836 301L833 304L831 304L830 297L825 294L825 286L821 284L822 283L820 277L817 273L813 273L811 270L807 272L802 270L795 271L788 277L785 278L781 276L770 284L768 284L767 282L763 284L761 283L756 290L756 298L750 300L744 306L742 310L747 312L748 315L744 319L738 319L739 327L736 326L739 333L741 332L742 335L740 336L742 339L745 338L747 345L749 347L746 354L748 363L746 363L750 367L751 371L749 376L745 376z"/>
    <path class="leaflet-interactive" stroke="#6A9FC3" stroke-width="2px" stroke-linecap="round" stroke-linejoin="round" fill-rule="evenodd" d="M812 271L817 264L815 262L815 257L821 251L822 248L815 243L816 239L814 239L811 231L809 231L808 229L810 224L814 225L816 223L818 225L823 223L818 215L819 212L825 208L832 206L835 202L841 203L845 201L855 208L858 205L863 205L865 203L861 193L865 186L870 185L872 178L870 177L874 177L880 184L883 183L885 179L884 177L887 176L887 174L882 169L868 169L863 165L854 166L847 170L843 170L840 174L837 175L829 174L826 173L822 167L817 169L807 162L791 162L785 161L783 158L774 161L766 161L763 164L759 162L756 163L746 158L746 156L740 151L739 147L736 146L735 136L728 135L728 128L725 127L719 129L720 132L712 137L713 140L711 144L701 145L699 141L698 143L701 151L699 161L692 159L681 168L681 177L678 184L679 188L677 189L680 195L681 205L672 208L673 210L669 209L669 211L671 210L673 212L678 213L679 218L682 220L680 221L677 227L676 234L678 236L676 235L676 240L682 243L682 246L684 248L683 255L684 257L686 256L688 258L682 262L680 267L682 268L679 270L682 276L684 276L683 282L685 283L685 285L689 283L689 285L691 284L696 291L692 296L691 295L687 304L688 303L693 307L695 306L696 308L699 305L700 300L710 301L709 299L711 295L713 293L716 293L718 299L721 299L723 305L722 307L724 308L725 313L729 318L727 319L731 320L731 323L733 323L738 319L744 319L748 315L747 312L742 310L750 300L752 301L756 298L756 290L761 283L763 284L767 282L768 284L770 284L781 276L785 278L795 272L802 270L807 272L811 270z"/>
    <path class="leaflet-interactive" stroke="#6A9FC3" stroke-width="2px" stroke-linecap="round" stroke-linejoin="round" fill-rule="evenodd" d="M489 308L492 304L493 297L495 297L490 290L495 287L497 288L499 285L501 285L504 288L505 292L507 292L510 291L512 289L511 287L513 284L516 283L519 284L519 286L526 286L529 292L531 292L534 291L533 281L534 280L534 284L536 284L537 281L535 277L538 274L541 274L543 272L544 274L551 271L552 269L556 269L557 271L560 269L561 271L562 269L567 268L570 271L572 268L572 250L576 240L572 234L575 234L580 229L589 228L594 230L594 234L597 235L598 238L602 235L609 236L614 235L615 233L623 235L631 232L631 230L625 223L620 224L616 221L618 217L621 215L622 211L625 210L628 204L634 198L636 186L644 186L645 184L636 176L633 176L629 170L626 171L622 168L623 164L627 162L627 154L629 152L629 147L626 145L626 140L625 141L621 137L617 136L614 139L612 137L606 138L604 137L604 134L598 134L592 137L579 136L576 139L576 143L572 139L569 140L567 135L561 130L558 133L556 140L557 141L554 144L554 146L550 147L550 150L543 158L539 174L532 172L529 177L526 178L526 181L529 185L520 186L517 188L516 191L513 191L512 193L509 194L505 195L504 192L498 200L496 200L496 202L493 202L490 194L488 195L489 193L473 189L468 196L453 199L451 209L444 208L435 216L434 215L434 218L429 227L431 230L437 229L441 231L438 238L438 241L440 241L438 248L445 252L445 254L455 267L455 269L458 271L460 270L462 272L462 275L465 275L470 278L476 278L478 283L477 288L483 293L483 300L487 307z"/>
  </g>
</svg>